<svg id="Calque_4" data-name="Calque 4" xmlns="http://www.w3.org/2000/svg" viewBox="0 0 36.85 45.35"><path id="path14" d="M-9.74-27.08A1.22,1.22,0,0,1-11-28.26a1.22,1.22,0,0,1,1.25-1.19A1.22,1.22,0,0,1-8.5-28.26,1.22,1.22,0,0,1-9.74-27.08Zm3-6.94a22.12,22.12,0,0,0-8.2,6.51s2.19,2.56,4.48,2c.12,0,.12.3,0,.4s-.48.23-.74.23a6.36,6.36,0,0,1-3.62-1.79,23.59,23.59,0,0,0,7.68,6.06c2.79-4.52.79-11.92.35-13.39" transform="translate(18.42 45.35)"/><path id="path16" d="M9.35-29a25.51,25.51,0,0,0-4-3.45,12.71,12.71,0,0,0-2-2C1-36.13.87-36-1.28-36.06c-.16,0-.74,1.06-.9,1.06a11.47,11.47,0,0,0-4,.77c.42,1.38,2.58,9-.36,13.82A11.86,11.86,0,0,0-3-19.53q.41,0,.81,0a10.19,10.19,0,0,0,1.24-.08A11,11,0,0,0,1-20c3.89-1.17,7.08-4.17,8.69-5.92,0,0,2.88,4.07,3.92,3.59s-.34-3-.46-5.47,1.13-4.8.37-5.27c-1-.62-4.2,4.1-4.2,4.1" transform="translate(18.42 45.35)"/><path d="M0-45.35A18.41,18.41,0,0,0-18.42-26.93a18.29,18.29,0,0,0,1.26,6.72h0a20.15,20.15,0,0,0,.95,2.05C-14.21-14.19-9-5.35,0,0,9-5.35,14.21-14.19,16.21-18.16a18.4,18.4,0,0,0,2.21-8.77A18.41,18.41,0,0,0,0-45.35ZM0-11.07A15.65,15.65,0,0,1-15.65-26.72,15.65,15.65,0,0,1,0-42.38,15.65,15.65,0,0,1,15.65-26.73,15.65,15.65,0,0,1,0-11.07Z" transform="translate(18.42 45.35)"/></svg>